<svg width="100" height="100" viewBox="0 0 100 100" xmlns="http://www.w3.org/2000/svg">
  <defs>
    <linearGradient id="rag-gradient" x1="0%" y1="0%" x2="100%" y2="100%">
      <stop offset="0%" style="stop-color:#FF6B6B;stop-opacity:1" />
      <stop offset="50%" style="stop-color:#4ECDC4;stop-opacity:1" />
      <stop offset="100%" style="stop-color:#45B7D1;stop-opacity:1" />
    </linearGradient>
  </defs>
  <rect x="10" y="10" width="80" height="80" rx="15" fill="url(#rag-gradient)"/>
  <!-- Database/Documents -->
  <rect x="20" y="25" width="25" height="4" fill="white" rx="2"/>
  <rect x="20" y="32" width="20" height="4" fill="white" rx="2"/>
  <rect x="20" y="39" width="25" height="4" fill="white" rx="2"/>
  <!-- Arrow -->
  <path d="M50 35 L60 35 L57 30 M60 35 L57 40" stroke="white" stroke-width="2" fill="none"/>
  <!-- AI Brain -->
  <circle cx="70" cy="35" r="8" fill="white" opacity="0.9"/>
  <circle cx="67" cy="33" r="1.5" fill="#FF6B6B"/>
  <circle cx="73" cy="33" r="1.5" fill="#FF6B6B"/>
  <path d="M67 37 Q70 39 73 37" stroke="#FF6B6B" stroke-width="1.5" fill="none"/>
  <!-- Generation arrows -->
  <path d="M40 55 L30 65 M40 55 L50 65 M40 55 L40 65" stroke="white" stroke-width="2" fill="none"/>
  <text x="50" y="85" text-anchor="middle" fill="white" font-family="Arial, sans-serif" font-size="8" font-weight="bold">RAG</text>
</svg>